<svg width="1880" height="965" viewBox="0 0 1880 965" fill="none" xmlns="http://www.w3.org/2000/svg">
<g clip-path="url(#clip0_631_37)">
<rect width="1879.21" height="965" fill="white"/>
<g clip-path="url(#clip1_631_37)">
<path d="M1173.8 494.174C1173.8 522.672 1150.7 545.774 1122.2 545.774C1093.7 545.774 1070.6 522.672 1070.6 494.174C1070.6 465.676 1093.7 442.574 1122.2 442.574C1150.7 442.574 1173.8 465.676 1173.8 494.174ZM1091.24 494.174C1091.24 511.273 1105.1 525.134 1122.2 525.134C1139.3 525.134 1153.16 511.273 1153.16 494.174C1153.16 477.075 1139.3 463.214 1122.2 463.214C1105.1 463.214 1091.24 477.075 1091.24 494.174Z" fill="#313140"/>
<path d="M959.377 467.62C953.552 457.926 944.701 450.411 934.184 446.231C923.667 442.05 912.066 441.435 901.166 444.481C890.265 447.527 880.667 454.064 873.848 463.088C867.029 472.112 863.366 483.124 863.422 494.43C863.478 505.735 867.25 516.71 874.158 525.666C881.067 534.622 890.729 541.064 901.659 544.002C912.59 546.94 924.184 546.21 934.659 541.926C945.134 537.642 953.91 530.04 959.639 520.288L941.816 509.843C938.379 515.693 933.113 520.255 926.828 522.825C920.543 525.396 913.587 525.833 907.028 524.071C900.47 522.308 894.673 518.443 890.528 513.069C886.383 507.696 884.12 501.111 884.086 494.327C884.052 487.544 886.25 480.937 890.342 475.523C894.433 470.108 900.192 466.186 906.732 464.358C913.273 462.531 920.233 462.9 926.543 465.408C932.854 467.916 938.164 472.425 941.659 478.241L959.377 467.62Z" fill="#313140"/>
<rect x="1182.33" y="400.672" width="20.9505" height="145.102" fill="#313140"/>
<path fill-rule="evenodd" clip-rule="evenodd" d="M1064.09 495.165C1064.09 488.134 1062.77 481.175 1060.22 474.698C1057.66 468.221 1053.91 462.359 1049.2 457.458C1044.49 452.557 1038.91 448.716 1032.79 446.163C1026.67 443.61 1020.13 442.397 1013.57 442.594C1007 442.792 1000.54 444.397 994.56 447.314C988.583 450.232 983.213 454.402 978.768 459.579C974.323 464.756 970.893 470.834 968.68 477.455C966.999 482.487 966.047 487.755 965.849 493.076C965.849 493.418 965.842 492.735 965.849 493.076C965.824 494.415 965.981 496.771 966.052 498.113C966.995 507.914 970.677 517.292 976.727 525.157C983.807 534.36 993.733 540.976 1004.97 543.979C1016.2 546.981 1028.11 546.202 1038.86 541.763C1049.6 537.323 1058.58 529.472 1064.39 519.425L1047.19 509.516C1043.56 515.785 1037.96 520.684 1031.25 523.454C1024.55 526.224 1017.12 526.709 1010.11 524.836C1003.1 522.963 996.906 518.835 992.489 513.092C988.52 507.933 986.184 501.729 985.751 495.272H1059.16V495.165H1064.09ZM1035.5 472.541C1037.59 474.709 1039.35 477.19 1040.75 479.902H989.145C990.276 477.71 991.65 475.666 993.241 473.814C995.908 470.707 999.13 468.205 1002.72 466.455C1006.3 464.704 1010.18 463.741 1014.12 463.623C1018.06 463.504 1021.98 464.232 1025.66 465.764C1029.33 467.296 1032.68 469.6 1035.5 472.541Z" fill="#313140"/>
</g>
<path d="M744.913 482.312V445.819L835.205 445.819L790.059 490.965L753.566 490.965C753.566 486.186 749.692 482.312 744.913 482.312Z" fill="url(#paint0_linear_631_37)"/>
<path d="M744.913 499.618C749.692 499.618 753.566 495.744 753.566 490.965H790.059L790.059 581.257L744.913 536.111L744.913 499.618Z" fill="url(#paint1_linear_631_37)"/>
<path fill-rule="evenodd" clip-rule="evenodd" d="M736.26 490.965L699.766 490.965L654.62 536.111H744.913L744.913 499.618C740.134 499.618 736.26 495.744 736.26 490.965Z" fill="url(#paint2_linear_631_37)"/>
<path fill-rule="evenodd" clip-rule="evenodd" d="M736.26 490.965C736.26 486.186 740.134 482.312 744.912 482.312V445.819L699.766 400.673V490.965L736.26 490.965Z" fill="url(#paint3_linear_631_37)"/>
<path d="M294.215 -50.6991C302.82 -53.1892 311.903 -48.2371 313.499 -39.4219C318.973 -9.17272 315.522 22.147 303.381 50.6438C289.113 84.1352 263.719 111.673 231.49 128.601C199.262 145.53 162.177 150.811 126.504 143.552C96.1507 137.375 68.4046 122.443 46.6051 100.769C40.2523 94.4524 41.3296 84.1634 48.2636 78.4912V78.4912C55.1975 72.819 65.3522 73.9334 71.8703 80.0789C88.8114 96.0515 109.948 107.077 132.973 111.762C161.321 117.531 190.793 113.334 216.404 99.881C242.016 86.428 262.197 64.5442 273.536 37.9289C282.745 16.3126 285.662 -7.34777 282.125 -30.3611C280.764 -39.2156 285.61 -48.209 294.215 -50.6991V-50.6991Z" fill="url(#paint4_linear_631_37)"/>
<path d="M1844.17 990.747C1841.85 999.4 1832.91 1004.61 1824.54 1001.42C1795.82 990.464 1770.8 971.314 1752.69 946.187C1731.4 916.656 1720.96 880.68 1723.14 844.341C1725.31 808.002 1739.97 773.529 1764.63 746.75C1785.61 723.964 1812.74 707.938 1842.56 700.487C1851.26 698.316 1859.5 704.559 1860.77 713.427V713.427C1862.04 722.295 1855.84 730.41 1847.21 732.811C1824.78 739.052 1804.41 751.442 1788.49 768.726C1768.9 790.007 1757.25 817.402 1755.52 846.281C1753.79 875.159 1762.08 903.748 1779 927.216C1792.74 946.277 1811.48 961.009 1833.01 969.882C1841.29 973.296 1846.49 982.094 1844.17 990.747V990.747Z" fill="url(#paint5_linear_631_37)"/>
</g>
<defs>
<linearGradient id="paint0_linear_631_37" x1="835.205" y1="445.819" x2="750.556" y2="482.5" gradientUnits="userSpaceOnUse">
<stop stop-color="#4968D6"/>
<stop offset="1" stop-color="#7692F5"/>
</linearGradient>
<linearGradient id="paint1_linear_631_37" x1="767.486" y1="490.965" x2="767.486" y2="581.257" gradientUnits="userSpaceOnUse">
<stop stop-color="#1D1DAE"/>
<stop offset="1" stop-color="#3535DD" stop-opacity="0.65"/>
</linearGradient>
<linearGradient id="paint2_linear_631_37" x1="744.913" y1="490.965" x2="651.798" y2="536.111" gradientUnits="userSpaceOnUse">
<stop stop-color="#7692F5"/>
<stop offset="1" stop-color="#5472DA"/>
</linearGradient>
<linearGradient id="paint3_linear_631_37" x1="722.339" y1="400.673" x2="722.339" y2="490.965" gradientUnits="userSpaceOnUse">
<stop stop-color="#3535DD" stop-opacity="0.65"/>
<stop offset="1" stop-color="#1D1DAE"/>
</linearGradient>
<linearGradient id="paint4_linear_631_37" x1="3.27943e-06" y1="-55.5298" x2="316.023" y2="-11.2865" gradientUnits="userSpaceOnUse">
<stop stop-color="#326DE6"/>
<stop offset="1" stop-color="#326DE6" stop-opacity="0.39"/>
</linearGradient>
<linearGradient id="paint5_linear_631_37" x1="1964.5" y1="712.611" x2="1839.97" y2="1006.41" gradientUnits="userSpaceOnUse">
<stop stop-color="#326DE6"/>
<stop offset="1" stop-color="#326DE6" stop-opacity="0.39"/>
</linearGradient>
<clipPath id="clip0_631_37">
<rect width="1879.21" height="965" fill="white"/>
</clipPath>
<clipPath id="clip1_631_37">
<rect width="338.596" height="282.164" fill="white" transform="translate(863.421 349.883)"/>
</clipPath>
</defs>
</svg>
